<svg xmlns="http://www.w3.org/2000/svg" viewBox="0 0 177.36 57.66"><title>Asset 1</title><g id="Layer_2" data-name="Layer 2"><g id="Layer_1-2" data-name="Layer 1"><polygon points="0 57.66 0.12 57.66 2.46 57.66 106.23 57.66 108.57 57.66 108.57 55.31 108.57 48.81 106.23 48.81 106.23 55.31 2.46 55.31 2.46 2.35 106.23 2.35 106.23 8.84 108.57 8.84 108.57 2.35 108.57 0 106.23 0 2.46 0 0.12 0 0 0 0 57.66" style="fill:#4d4e4e"/><path d="M16.65,36.81v-16h1.62v16Z" style="fill:#444545"/><path d="M35.94,20.78h1.62V37H35.76L26.63,23.09V36.81H25v-16h1.84l9.08,13.74Z" style="fill:#444545"/><path d="M48.32,35.68a4.85,4.85,0,0,0,1.54-.23,3.7,3.7,0,0,0,1.19-.64,3,3,0,0,0,.78-1,2.58,2.58,0,0,0,.28-1.19,2.46,2.46,0,0,0-.28-1.21,2.77,2.77,0,0,0-.81-.9,5.73,5.73,0,0,0-1.27-.68q-.74-.29-1.69-.58t-1.68-.59a6.21,6.21,0,0,1-1.5-.85,4.06,4.06,0,0,1-1.08-1.24,3.65,3.65,0,0,1-.41-1.81,4,4,0,0,1,.39-1.76,4.15,4.15,0,0,1,1.08-1.38,5,5,0,0,1,1.64-.9,6.37,6.37,0,0,1,2.05-.32,9.18,9.18,0,0,1,2.59.35,8.64,8.64,0,0,1,2.23,1l-.59,1.43a7.73,7.73,0,0,0-2-1,7.14,7.14,0,0,0-2.19-.36,5,5,0,0,0-1.56.22,3.24,3.24,0,0,0-1.12.6,2.45,2.45,0,0,0-.67.89,2.57,2.57,0,0,0-.22,1,2.21,2.21,0,0,0,.28,1.14,2.62,2.62,0,0,0,.82.83,6.87,6.87,0,0,0,1.28.66q.74.3,1.66.58a16.75,16.75,0,0,1,1.7.6,5.84,5.84,0,0,1,1.48.89,4.14,4.14,0,0,1,1,1.31,4,4,0,0,1,.4,1.85,4.31,4.31,0,0,1-.4,1.85,4.42,4.42,0,0,1-1.1,1.46,5.09,5.09,0,0,1-1.71,1,6.7,6.7,0,0,1-2.21.35,9.34,9.34,0,0,1-2.76-.4,10,10,0,0,1-2.4-1.09l.59-1.46a9.37,9.37,0,0,0,2.1,1.08A7.31,7.31,0,0,0,48.32,35.68Z" style="fill:#444545"/><path d="M59.43,36.81v-16H61v16Z" style="fill:#444545"/><path d="M80.63,28.68a9.41,9.41,0,0,1-.58,3.4,6.89,6.89,0,0,1-1.68,2.55,7.43,7.43,0,0,1-2.71,1.62,11,11,0,0,1-3.65.56H67.79v-16h4.36a10.51,10.51,0,0,1,3.55.56A7.44,7.44,0,0,1,78.36,23,7,7,0,0,1,80,25.45,8.57,8.57,0,0,1,80.63,28.68ZM79,28.81A6.26,6.26,0,0,0,77.19,24,7.25,7.25,0,0,0,72,22.3H69.4v13h2.68a9.44,9.44,0,0,0,2.82-.4A5.93,5.93,0,0,0,77.1,33.7a5.4,5.4,0,0,0,1.42-2A7.46,7.46,0,0,0,79,28.81Z" style="fill:#444545"/><path d="M86.45,36.81v-16h9.67V22.3H88.07v5.77h6.72v1.46H88.07V35.3h8.05v1.51Z" style="fill:#444545"/><path d="M103.63,36.81H102v-16h4.31a6.51,6.51,0,0,1,4.4,1.26,4.26,4.26,0,0,1,1.42,3.36,4.32,4.32,0,0,1-.29,1.63,4.45,4.45,0,0,1-.79,1.29,4.8,4.8,0,0,1-1.18,1,6.65,6.65,0,0,1-1.45.63l4.44,6.9H111l-4.11-6.62-3.22.21Zm2.89-8a5.57,5.57,0,0,0,1.52-.26,4.18,4.18,0,0,0,1.28-.65,3.1,3.1,0,0,0,.88-1,3,3,0,0,0,.32-1.41,2.75,2.75,0,0,0-1.14-2.4,5.57,5.57,0,0,0-3.26-.81h-2.51v6.67Z" style="fill:#444545"/><path d="M138.1,25.92a5.22,5.22,0,0,1-1.83,4.31,8.23,8.23,0,0,1-5.3,1.49l-1.56,0v4.64h-4.08v-16h5.92a9.65,9.65,0,0,1,3,.41,6.31,6.31,0,0,1,2.14,1.14,4.63,4.63,0,0,1,1.31,1.76A5.71,5.71,0,0,1,138.1,25.92ZM134,26q0-2.44-3.1-2.44H129.3v5l1.64,0a3.67,3.67,0,0,0,2.35-.67A2.32,2.32,0,0,0,134,26Z" style="fill:#4cc6df"/><path d="M147.2,36.38h-4.08v-16h6.44a7.4,7.4,0,0,1,4.85,1.37A4.58,4.58,0,0,1,156,25.43a4.78,4.78,0,0,1-.83,2.81A5.1,5.1,0,0,1,152.77,30l4.1,6.33h-4.59L149.07,31l-1.87.15Zm2-8.31a3.55,3.55,0,0,0,2-.67,2.09,2.09,0,0,0,.69-1.72q0-2.1-3-2.1h-1.72v4.54Z" style="fill:#4cc6df"/><path d="M177.36,28.3a9.05,9.05,0,0,1-.64,3.46,7.79,7.79,0,0,1-4.46,4.4,9.07,9.07,0,0,1-3.33.6,9.74,9.74,0,0,1-3.31-.55,7.51,7.51,0,0,1-2.65-1.6A7.38,7.38,0,0,1,161.2,32a9.41,9.41,0,0,1-.64-3.59,9.05,9.05,0,0,1,.64-3.46,7.71,7.71,0,0,1,4.44-4.37A9.06,9.06,0,0,1,169,20a9.91,9.91,0,0,1,3.32.54,7.29,7.29,0,0,1,4.42,4.22A9.31,9.31,0,0,1,177.36,28.3Zm-4.1.1a7.07,7.07,0,0,0-.3-2.1,4.84,4.84,0,0,0-.85-1.63,3.75,3.75,0,0,0-1.36-1.05,4.34,4.34,0,0,0-1.83-.37,3.78,3.78,0,0,0-3.15,1.4,5.73,5.73,0,0,0-1.1,3.65,7.05,7.05,0,0,0,.29,2.1,5,5,0,0,0,.85,1.64,3.68,3.68,0,0,0,1.36,1.06,4.33,4.33,0,0,0,1.83.37,4.18,4.18,0,0,0,1.8-.37,3.82,3.82,0,0,0,1.35-1,4.53,4.53,0,0,0,.83-1.6A7.12,7.12,0,0,0,173.26,28.41Z" style="fill:#4cc6df"/></g></g></svg>